# xmcd
#
# Track frame offsets: 
#        150
#        14815
#        29707
#        44188
#        63361
#        79119
#        94844
#        108673
#        123292
#        138757
#        153322
#        166702
#        184072
#        199176
#        215830
#        229338
#        244644
#        260843
#        275926
#        291066
#        308554
#        325461
#
# Disc length: 4554 seconds
#
# Revision: 1
# Processed by: cddbd v1.5.2PL0 Copyright (c) Steve Scherf et al.
# Submitted via: ExactAudioCopy v0.99pb4
#
DISCID=5411c816
DTITLE=Various Artist - Maximum Hit Music 02-2012
DYEAR=2012
DGENRE=Pop
TTITLE0=Emeli Sandé - Next To Me
TTITLE1=Gusttavo Lima - Balada
TTITLE2=Carly Rae Jepsen - Call Me Maybe
TTITLE3=Birdy - People Help The People
TTITLE4=Nicki Minaj - Starships
TTITLE5=Marco Z - I'm A Bird
TTITLE6=Ed Sheeran - Lego House
TTITLE7=Train - Drive By
TTITLE8=Glenn Claes - Knight In Shining Armour
TTITLE9=Dimitri Vegas, Like Mike and Regi - Momentum
TTITLE10=DJ Fresh Feat. Rita Ora - Hot Right Now
TTITLE11=Silke Mastbooms - Awake
TTITLE12=Olly Murs Feat. Rizzle Kicks - Heart Skips A Beat
TTITLE13=Gers Pardoel Feat. Sef - Bagagedrager
TTITLE14=Iris - Would You
TTITLE15=LMFAO - Sorry For Party Rocking
TTITLE16=Tom Dice - Utopia
TTITLE17=Jessy Feat. Abie Flinstone - Innocence '12
TTITLE18=Nelson - Let Me Be Myself
TTITLE19=Flo Rida Feat. Sia - Wild Ones
TTITLE20=Gossip - Perfect World
TTITLE21=Triggerfinger - I Follow Rivers (Live @ Giel !)
EXTD=
EXTT0=
EXTT1=
EXTT2=
EXTT3=
EXTT4=
EXTT5=
EXTT6=
EXTT7=
EXTT8=
EXTT9=
EXTT10=
EXTT11=
EXTT12=
EXTT13=
EXTT14=
EXTT15=
EXTT16=
EXTT17=
EXTT18=
EXTT19=
EXTT20=
EXTT21=
PLAYORDER=
